<svg width="159" height="25" viewBox="0 0 159 25" fill="none" xmlns="http://www.w3.org/2000/svg">
<path d="M158.343 6.90058H153.45V5.39902C153.45 4.69829 153.388 4.25199 153.262 4.06012C153.137 3.86825 152.929 3.77232 152.637 3.77232C152.32 3.77232 152.078 3.90162 151.911 4.16023C151.753 4.41883 151.673 4.8109 151.673 5.33645C151.673 6.01215 151.765 6.52102 151.949 6.86304C152.124 7.20506 152.62 7.61799 153.438 8.10183C155.782 9.49495 157.258 10.6378 157.867 11.5304C158.476 12.423 158.781 13.862 158.781 15.8474C158.781 17.2906 158.61 18.3542 158.268 19.0382C157.934 19.7223 157.283 20.2979 156.316 20.765C155.348 21.2238 154.222 21.4532 152.937 21.4532C151.527 21.4532 150.322 21.1863 149.321 20.6524C148.328 20.1185 147.677 19.4386 147.369 18.6128C147.06 17.7869 146.906 16.6149 146.906 15.0966V13.7702H151.798V16.2353C151.798 16.9944 151.865 17.4824 151.999 17.6993C152.14 17.9162 152.387 18.0247 152.737 18.0247C153.087 18.0247 153.346 17.887 153.513 17.6117C153.688 17.3365 153.775 16.9277 153.775 16.3855C153.775 15.1926 153.613 14.4126 153.287 14.0455C152.954 13.6785 152.132 13.0653 150.822 12.2061C149.513 11.3385 148.645 10.7087 148.22 10.3166C147.794 9.92456 147.44 9.38233 147.156 8.68994C146.881 7.99756 146.743 7.1133 146.743 6.03718C146.743 4.48556 146.939 3.35105 147.331 2.63364C147.732 1.91622 148.374 1.35731 149.258 0.956889C150.143 0.54813 151.21 0.34375 152.462 0.34375C153.83 0.34375 154.993 0.564814 155.953 1.00694C156.92 1.44907 157.559 2.00798 157.867 2.68369C158.184 3.35105 158.343 4.48974 158.343 6.09975V6.90058Z" fill="white"/>
<path d="M133.957 0.769196H142.741V4.82342H139.225V8.66492H142.516V12.5189H139.225V16.9736H143.092V21.0278H133.957V0.769196Z" fill="white"/>
<path d="M129.28 0.769196V21.0278H124.012V0.769196H129.28Z" fill="white"/>
<path d="M120.548 0.769196L117.871 21.0278H109.875L106.834 0.769196H112.39C113.032 6.35001 113.491 11.0674 113.766 14.9214C114.042 11.0257 114.329 7.56377 114.63 4.53562L114.993 0.769196H120.548Z" fill="white"/>
<path d="M103.496 12.6316C103.496 14.667 103.446 16.1102 103.345 16.9611C103.254 17.8036 102.953 18.5752 102.445 19.276C101.944 19.9767 101.264 20.5148 100.405 20.8902C99.5457 21.2655 98.5446 21.4532 97.4018 21.4532C96.3173 21.4532 95.3413 21.2781 94.4737 20.9277C93.6145 20.569 92.9221 20.0351 92.3966 19.326C91.871 18.617 91.5582 17.8453 91.4581 17.0111C91.358 16.1769 91.3079 14.7171 91.3079 12.6316V9.16544C91.3079 7.12999 91.3538 5.69099 91.4456 4.84844C91.5457 3.99756 91.846 3.22175 92.3465 2.52102C92.8554 1.82029 93.5394 1.28223 94.3986 0.906837C95.2579 0.531446 96.2589 0.34375 97.4018 0.34375C98.4862 0.34375 99.4581 0.523104 100.317 0.881811C101.185 1.23218 101.881 1.76189 102.407 2.47097C102.933 3.18004 103.245 3.95168 103.345 4.78588C103.446 5.62008 103.496 7.07993 103.496 9.16544V12.6316ZM98.2276 5.97462C98.2276 5.03197 98.1734 4.43134 98.065 4.17274C97.9649 3.90579 97.7521 3.77232 97.4268 3.77232C97.1515 3.77232 96.9388 3.88077 96.7886 4.09766C96.6468 4.30621 96.5759 4.93186 96.5759 5.97462V15.4345C96.5759 16.6107 96.6218 17.3365 96.7136 17.6117C96.8137 17.887 97.0389 18.0247 97.3893 18.0247C97.748 18.0247 97.9774 17.8662 98.0775 17.5492C98.1776 17.2322 98.2276 16.4772 98.2276 15.2843V5.97462Z" fill="white"/>
<path d="M86.7807 0.769196V21.0278H82.1759V7.35105L80.3365 21.0278H77.0706L75.1311 7.66388V21.0278H70.5263V0.769196H77.3459C77.5461 1.98713 77.7588 3.42196 77.9841 5.07368L78.7098 10.229L79.9111 0.769196H86.7807Z" fill="white"/>
<path d="M54.9776 0.769196H57.6929V24.3438H54.9776V0.769196Z" fill="white"/>
<path d="M43.358 0.769196L40.6802 21.0278H32.6843L29.6437 0.769196H35.1995C35.8418 6.35001 36.3006 11.0674 36.5759 14.9214C36.8512 11.0257 37.139 7.56377 37.4393 4.53562L37.8022 0.769196H43.358Z" fill="white"/>
<path d="M17.6212 0.769196H26.4053V4.82342H22.8892V8.66492H26.1801V12.5189H22.8892V16.9736H26.7557V21.0278H17.6212V0.769196Z" fill="white"/>
<path d="M0.893738 0.769196H4.83534C7.37966 0.769196 9.09812 0.885984 9.99071 1.11956C10.8917 1.35314 11.5757 1.73687 12.0429 2.27076C12.51 2.80465 12.802 3.4011 12.9188 4.06012C13.0356 4.7108 13.0939 5.99547 13.0939 7.91414V15.009C13.0939 16.8276 13.0064 18.0455 12.8312 18.6628C12.6643 19.2718 12.3682 19.7515 11.9427 20.1018C11.5173 20.4439 10.9918 20.6858 10.3661 20.8276C9.74045 20.9611 8.7978 21.0278 7.53816 21.0278H0.893738V0.769196ZM6.16173 4.23531V17.5617C6.92085 17.5617 7.388 17.4115 7.56319 17.1112C7.73837 16.8026 7.82596 15.9725 7.82596 14.6211V6.75043C7.82596 5.8328 7.79676 5.24469 7.73837 4.98609C7.67997 4.72749 7.5465 4.53979 7.33795 4.423C7.1294 4.29787 6.73733 4.23531 6.16173 4.23531Z" fill="white"/>
</svg>
